<?xml version="1.0" encoding="UTF-8"?>
<!DOCTYPE svg PUBLIC "-//W3C//DTD SVG 1.1//EN" "http://www.w3.org/Graphics/SVG/1.1/DTD/svg11.dtd">
<svg xmlns="http://www.w3.org/2000/svg" version="1.1" width="816px" height="816px" style="shape-rendering:geometricPrecision; text-rendering:geometricPrecision; image-rendering:optimizeQuality; fill-rule:evenodd; clip-rule:evenodd" xmlns:xlink="http://www.w3.org/1999/xlink">
<g><path style="opacity:0.988" fill="#fed5fe" d="M 23.5,-0.5 C 92.1667,-0.5 160.833,-0.5 229.5,-0.5C 241.706,4.5491 249.54,13.5491 253,26.5C 253.667,92.8333 253.667,159.167 253,225.5C 249.131,240.035 239.965,249.202 225.5,253C 206.167,253.667 186.833,253.667 167.5,253C 152.667,248.833 143.167,239.333 139,224.5C 138.171,187.262 138.337,150.095 139.5,113C 102.167,112.667 64.8333,112.333 27.5,112C 14.3367,108.604 5.00338,100.771 -0.5,88.5C -0.5,66.8333 -0.5,45.1667 -0.5,23.5C 4.5,12.5 12.5,4.5 23.5,-0.5 Z"/></g>
<g><path style="opacity:0.99" fill="#fed5fe" d="M 304.5,-0.5 C 326.167,-0.5 347.833,-0.5 369.5,-0.5C 381.743,4.58179 389.577,13.5818 393,26.5C 393.5,110.833 393.667,195.166 393.5,279.5C 431.168,279.333 468.835,279.5 506.5,280C 518.619,283.119 527.452,290.286 533,301.5C 534.111,313.121 534.611,324.787 534.5,336.5C 534.611,348.213 534.111,359.879 533,371.5C 527.452,382.714 518.619,389.881 506.5,393C 440.5,393.667 374.5,393.667 308.5,393C 296.355,389.85 287.522,382.683 282,371.5C 280.343,256.202 280.01,140.868 281,25.5C 284.828,13.1736 292.662,4.50694 304.5,-0.5 Z"/></g>
<g><path style="opacity:0.989" fill="#bacffe" d="M 443.5,-0.5 C 558.833,-0.5 674.167,-0.5 789.5,-0.5C 801.973,4.47792 810.139,13.4779 814,26.5C 814.667,92.8333 814.667,159.167 814,225.5C 809.833,239.667 800.667,248.833 786.5,253C 767.167,253.667 747.833,253.667 728.5,253C 714,249.167 704.833,240 701,225.5C 700.5,187.835 700.333,150.168 700.5,112.5C 616.166,112.667 531.833,112.5 447.5,112C 432.814,108.905 423.647,100.072 420,85.5C 419.333,65.8333 419.333,46.1667 420,26.5C 423.433,13.5737 431.266,4.57365 443.5,-0.5 Z"/></g>
<g><path style="opacity:0.987" fill="#fed5fe" d="M -0.5,369.5 C -0.5,300.833 -0.5,232.167 -0.5,163.5C 4.77651,151.397 13.7765,143.23 26.5,139C 45.8333,138.333 65.1667,138.333 84.5,139C 98.9912,142.825 108.158,151.991 112,166.5C 112.5,204.165 112.667,241.832 112.5,279.5C 150.168,279.333 187.835,279.5 225.5,280C 240.02,283.854 249.187,293.02 253,307.5C 253.667,326.833 253.667,346.167 253,365.5C 249.5,380.333 240.333,389.5 225.5,393C 159.167,393.667 92.8333,393.667 26.5,393C 13.7674,389.322 4.76741,381.489 -0.5,369.5 Z"/></g>
<g><path style="opacity:0.983" fill="#bacffe" d="M 449.5,138.5 C 515.834,138.333 582.168,138.5 648.5,139C 662.772,143.605 671.939,153.105 676,167.5C 676.667,233.167 676.667,298.833 676,364.5C 671.833,379.333 662.333,388.833 647.5,393C 628.167,393.667 608.833,393.667 589.5,393C 575,389.167 565.833,380 562,365.5C 561.5,328.168 561.333,290.835 561.5,253.5C 524.165,253.667 486.832,253.5 449.5,253C 435,249.167 425.833,240 422,225.5C 421.333,205.833 421.333,186.167 422,166.5C 425.981,152.02 435.147,142.687 449.5,138.5 Z"/></g>
<g><path style="opacity:0.976" fill="#b7bffe" d="M 815.5,303.5 C 815.5,325.167 815.5,346.833 815.5,368.5C 810.104,380.391 801.104,388.224 788.5,392C 767.782,392.953 747.115,392.62 726.5,391C 714.103,386.267 706.27,377.434 703,364.5C 702.333,345.167 702.333,325.833 703,306.5C 706.833,292 716,282.833 730.5,279C 749.833,278.333 769.167,278.333 788.5,279C 801.522,282.861 810.522,291.027 815.5,303.5 Z"/></g>
<g><path style="opacity:0.992" fill="#c7b5fe" d="M 229.5,815.5 C 160.833,815.5 92.1667,815.5 23.5,815.5C 12.3597,810.605 4.35975,802.605 -0.5,791.5C -0.5,722.5 -0.5,653.5 -0.5,584.5C 4.58711,571.585 13.9204,563.419 27.5,560C 64.8333,559.667 102.167,559.333 139.5,559C 138.167,550.333 138.167,541.667 139.5,533C 102.167,532.667 64.8333,532.333 27.5,532C 13.9204,528.581 4.58711,520.415 -0.5,507.5C -0.5,486.167 -0.5,464.833 -0.5,443.5C 4.47792,431.027 13.4779,422.861 26.5,419C 92.8333,418.333 159.167,418.333 225.5,419C 239.965,422.798 249.131,431.965 253,446.5C 253.667,512.833 253.667,579.167 253,645.5C 249.196,659.971 240.029,669.138 225.5,673C 187.835,673.5 150.168,673.667 112.5,673.5C 112.5,683.167 112.5,692.833 112.5,702.5C 150.168,702.333 187.835,702.5 225.5,703C 240.667,706.167 249.833,715.333 253,730.5C 253.667,749.833 253.667,769.167 253,788.5C 249.54,801.451 241.706,810.451 229.5,815.5 Z"/></g>
<g><path style="opacity:0.986" fill="#c7b5fe" d="M 367.5,815.5 C 348.5,815.5 329.5,815.5 310.5,815.5C 295.777,811.039 286.277,801.372 282,786.5C 281.333,674.167 281.333,561.833 282,449.5C 285.833,434.333 295.333,424.833 310.5,421C 329.5,420.333 348.5,420.333 367.5,421C 382.029,424.862 391.196,434.029 395,448.5C 395.667,561.5 395.667,674.5 395,787.5C 391.005,801.995 381.838,811.328 367.5,815.5 Z"/></g>
<g><path style="opacity:0.994" fill="#e6c5fe" d="M 815.5,446.5 C 815.5,560.5 815.5,674.5 815.5,788.5C 809.905,802.43 799.905,811.43 785.5,815.5C 674.167,815.5 562.833,815.5 451.5,815.5C 435.813,811.312 425.98,801.312 422,785.5C 421.333,673.833 421.333,562.167 422,450.5C 425.798,434.702 435.631,424.869 451.5,421C 562.833,420.333 674.167,420.333 785.5,421C 799.637,424.638 809.637,433.138 815.5,446.5 Z"/></g>
</svg>
